# ProBuilder 5.1.1
# https://unity3d.com/unity/features/worldbuilding/probuilder
# 9/30/2023 11:18:54 PM

mtllib ./SM_Env_Wall_Door_Hole_001.mtl
o SM_Env_Wall_Door_Hole_001

g SM_Env_Wall_001
v -0.06420183 0.1270009 2.691357
v -0.06420203 0.1270008 4
v -0.06420196 0.09525067 4
v -0.06420183 0.09525073 2.691357
v -0.06420189 0.06350052 4
v -0.06420183 0.06350064 2.691357
v -0.06420183 0.03175038 4
v -0.06420159 0.03175044 2.691357
v -0.06420176 2.384186E-07 4
v -0.06420159 2.368522E-07 2.691357
v -0.06420153 3.576279E-07 2
v -0.06420156 0.03175053 2
v -0.06420135 4.159004E-07 1.33312
v -0.06420135 0.03175062 1.33312
v -0.06420129 4.768372E-07 2.384186E-07
v -0.06420128 0.03175068 4.172325E-07
v -0.06420127 0.06350088 5.960464E-07
v -0.06420135 0.06350082 1.33312
v -0.06420127 0.09525108 7.748604E-07
v -0.06420135 0.09525102 1.333121
v -0.06420126 0.1270013 9.536743E-07
v -0.06420135 0.1270012 1.333121
v -0.03210127 0.133317 4
v -0.03210115 0.133317 2.691357
v -0.01605082 0.1364751 2.691357
v -0.01605089 0.1364751 4
v -4.768372E-07 0.1396332 2.691357
v -5.07991E-07 0.1396332 4
v -0.04815149 0.130159 2.691357
v -0.04815165 0.1301589 4
v -0.04815094 0.1301593 7.748604E-07
v -0.04815102 0.1301592 1.333121
v -0.03210062 0.1333172 5.960464E-07
v -0.03210068 0.1333172 1.33312
v -0.0160503 0.1364752 4.172325E-07
v -0.01605034 0.1364751 1.33312
v 1.97392E-08 0.1396332 2.384186E-07
v 0 0.1396332 1.33312
v -1.943909E-07 2.069816 4
v 0 2.069816 2.691357
v 0.005474091 2.331477 2.691342
v -3.759086E-08 3.034908 4
v 0 2.331477 2
v 2.086162E-07 4 2
v 1.639127E-07 4 3
v 1.192092E-07 4 4
v -2.384186E-07 1.104725 2.691357
v -3.511909E-07 1.104725 4
v 8.931021E-08 1.104725 1.192093E-07
v 0 1.104725 1.33312
v 1.588812E-07 2.069817 0
v 0 2.069817 1.33312
v 2.284522E-07 3.034909 -1.192093E-07
v -0.005473852 2.331477 1.333135
v 2.980232E-07 4 -2.384186E-07
v 2.533197E-07 4 0.9999997
v -0.008312613 0.7308512 4
v -0.008312225 0.7308513 2.691357
v -0.008311987 0.8381715 2.691357
v -0.008312389 0.8381714 4
v -0.008311749 0.9454918 2.691357
v -0.008312165 0.9454916 3.999999
v -0.008310526 0.9454921 2.264977E-06
v -0.008311033 0.945492 1.333122
v -0.008311033 0.8381718 1.333122
v -0.008310735 0.8381719 2.205372E-06
v -0.008311272 0.7308515 1.333122
v -0.008310944 0.7308517 2.145767E-06
v -0.008310316 1.052812 2.324581E-06
v -0.008310795 1.052812 1.333122
v -0.008310108 1.160133 2.384186E-06
v -0.008310556 1.160133 1.333122
v -0.00831151 1.052812 2.691357
v -0.00831194 1.052812 3.999999
v -0.008311272 1.160132 2.691357
v -0.008311717 1.160132 3.999999

vt 0.7500001 0.06317815
vt 1 0.06317816
vt 1 0.04738362
vt 0.7500001 0.04738361
vt 1 0.03158908
vt 0.7500001 0.03158907
vt 1 0.01579454
vt 0.7500001 0.01579453
vt 1 0
vt 0.7500001 -1.092785E-08
vt 0.5000001 -2.185569E-08
vt 0.5000001 0.01579452
vt 0.2500001 -3.278354E-08
vt 0.2500001 0.01579451
vt 1.192093E-07 -4.371139E-08
vt 1.192093E-07 0.0157945
vt 1.192093E-07 0.03158905
vt 0.2500001 0.03158905
vt 1.192093E-07 0.04738359
vt 0.2500001 0.0473836
vt 1.192093E-07 0.06317814
vt 0.2500001 0.06317814
vt 1 0.06470598
vt 0.7500001 0.06470598
vt 0.7500001 0.06546988
vt 1 0.06546989
vt 0.7500001 0.0662338
vt 1 0.06623381
vt 0.7500001 0.06394206
vt 1 0.06394207
vt 1.192093E-07 0.06394204
vt 0.2500001 0.06394205
vt 1.192093E-07 0.06470595
vt 0.2500001 0.06470595
vt 1.192093E-07 0.06546985
vt 0.2500001 0.06546986
vt 1.192093E-07 0.06623375
vt 0.2500001 0.06623377
vt 1 0.5331169
vt 0.7500001 0.5331169
vt 0.7500001 0.7665584
vt 1 0.7665584
vt 0.5000001 0.7665584
vt 0.5000001 1
vt 0.7500001 1
vt 1 1
vt 0.7500001 0.2996753
vt 1 0.2996753
vt 1.192093E-07 0.2996753
vt 0.2500001 0.2996753
vt 1.192093E-07 0.5331168
vt 0.2500001 0.5331168
vt 1.192093E-07 0.7665584
vt 0.2500001 0.7665584
vt 1.192093E-07 0.9999999
vt 0.2500001 1
vt 0 0.25
vt 0.25 0.25
vt 0.5 0.25
vt 0.5 0.75
vt 0.25 0.75
vt 0 0.75
vt 0 1
vt 0.75 0.75
vt 1 0.75
vt 0.75 0.25
vt 1 0.25

vn -1 -1.055983E-06 -1.224074E-07
vn -0.1930596 0.981187 -1.648738E-08
vn -0.9998312 0.01045639 -0.00771136
vn -0.9996623 0.02091262 -0.01542257
vn -0.9999787 -0.002372562 0.003958837
vn -0.9999574 -0.004745249 0.007917719
vn -0.9999946 -0.003280677 -4.548544E-08
vn -0.999993 -0.001640257 -0.002091554
vn -0.9999912 1.624702E-07 -0.004183062
vn -0.9997813 -0.02091507 -1.228944E-07
vn -0.9998864 -0.0104575 -0.002053111
vn -0.9999963 0.001375412 -0.001327373
vn -0.9999927 0.002750752 -0.002654702
vn -0.9999946 0.003280783 -4.470327E-08
vn -0.9999804 0.001640455 0.004104008
vn -0.9999663 1.256127E-07 0.008208061

usemtl Material_#38
f 4/4/1 3/3/1 2/2/1 1/1/1
f 4/4/1 6/6/1 5/5/1 3/3/1
f 6/6/1 8/8/1 7/7/1 5/5/1
f 8/8/1 10/10/1 9/9/1 7/7/1
f 12/12/1 11/11/1 10/10/1 8/8/1
f 13/13/1 11/11/1 12/12/1 14/14/1
f 16/16/1 15/15/1 13/13/1 14/14/1
f 17/17/1 16/16/1 14/14/1 18/18/1
f 19/19/1 17/17/1 18/18/1 20/20/1
f 21/21/1 19/19/1 20/20/1 22/22/1
f 26/26/2 25/25/2 24/24/2 23/23/2
f 28/28/2 27/27/2 25/25/2 26/26/2
f 30/30/2 29/29/2 1/1/2 2/2/2
f 23/23/2 24/24/2 29/29/2 30/30/2
f 32/32/2 31/31/2 21/21/2 22/22/2
f 34/34/2 33/33/2 31/31/2 32/32/2
f 36/36/2 35/35/2 33/33/2 34/34/2
f 38/38/2 37/37/2 35/35/2 36/36/2

usemtl MAT_Env_Gradient_Walls_01
f 42/42/3 41/41/4 40/40/3 39/39/1
f 45/45/5 44/44/1 43/43/5 41/41/6
f 45/45/7 41/41/8 42/42/9 46/46/8
f 47/47/1 27/27/1 28/28/1 48/48/1
f 39/39/1 40/40/1 47/47/1 48/48/1
f 50/50/1 49/49/1 37/37/1 38/38/1
f 51/51/1 49/49/1 50/50/1 52/52/1
f 54/54/11 53/53/9 51/51/11 52/52/10
f 56/56/12 55/55/1 53/53/12 54/54/13
f 44/44/15 56/56/14 54/54/15 43/43/16

usemtl MAT_Env_Gradient_WallPaint_01
f 59/58/1 58/57/1 57/15/1 60/13/1
f 62/11/1 61/59/1 59/58/1 60/13/1
f 66/56/1 65/61/1 64/60/1 63/44/1
f 66/56/1 68/63/1 67/62/1 65/61/1
f 69/45/1 63/44/1 64/60/1 70/64/1
f 69/45/1 70/64/1 72/65/1 71/46/1
f 74/10/1 73/66/1 61/59/1 62/11/1
f 75/67/1 73/66/1 74/10/1 76/9/1

